<svg viewBox="0 0 24 24" fill="none" xmlns="http://www.w3.org/2000/svg">
<g id="mi:home">
<path id="Vector" d="M11.336 2.253C11.519 2.09049 11.7553 2.00073 12 2.00073C12.2447 2.00073 12.481 2.09049 12.664 2.253L21.664 10.253C21.8521 10.4317 21.9634 10.6766 21.9744 10.9358C21.9853 11.1951 21.8951 11.4484 21.7227 11.6424C21.5503 11.8363 21.3093 11.9557 21.0505 11.9752C20.7918 11.9947 20.5355 11.9129 20.336 11.747L20 11.45V19C20 19.5304 19.7893 20.0391 19.4142 20.4142C19.0391 20.7893 18.5304 21 18 21H6C5.46957 21 4.96086 20.7893 4.58579 20.4142C4.21071 20.0391 4 19.5304 4 19V11.45L3.664 11.747C3.46446 11.9129 3.20825 11.9947 2.9495 11.9752C2.69075 11.9557 2.44972 11.8363 2.27732 11.6424C2.10493 11.4484 2.01467 11.1951 2.02562 10.9358C2.03657 10.6766 2.14787 10.4317 2.336 10.253L11.336 2.253ZM6 9.67V19H9V14C9 13.7348 9.10536 13.4804 9.29289 13.2929C9.48043 13.1054 9.73478 13 10 13H14C14.2652 13 14.5196 13.1054 14.7071 13.2929C14.8946 13.4804 15 13.7348 15 14V19H18V9.671L12 4.338L6 9.67ZM13 19V15H11V19H13Z" fill="currentColor"/>
</g>
</svg>
