<svg viewBox="0 0 24 24" fill="none" xmlns="http://www.w3.org/2000/svg">
<g id="mi:inbox">
<path id="Vector" d="M3 5C3 4.46957 3.21071 3.96086 3.58579 3.58579C3.96086 3.21071 4.46957 3 5 3H19C19.5304 3 20.0391 3.21071 20.4142 3.58579C20.7893 3.96086 21 4.46957 21 5V19C21 19.5304 20.7893 20.0391 20.4142 20.4142C20.0391 20.7893 19.5304 21 19 21H5C4.46957 21 3.96086 20.7893 3.58579 20.4142C3.21071 20.0391 3 19.5304 3 19V5ZM5 14V19H19V14H16.72L15.949 16.316C15.8827 16.5152 15.7553 16.6885 15.585 16.8112C15.4146 16.934 15.21 17.0001 15 17H9C8.79004 17.0001 8.58538 16.934 8.41505 16.8112C8.24472 16.6885 8.11735 16.5152 8.051 16.316L7.28 14H5ZM19 12V5H5V12H7.28C7.69964 12 8.10863 12.1321 8.44908 12.3774C8.78953 12.6227 9.04419 12.9689 9.177 13.367L9.72 15H14.278L14.822 13.367C14.9549 12.9686 15.2099 12.6222 15.5507 12.3768C15.8916 12.1315 16.301 11.9996 16.721 12H19Z" fill="currentColor"/>
</g>
</svg>
