<svg viewBox="0 0 24 24" fill="none" xmlns="http://www.w3.org/2000/svg">
<g id="mi:layout">
<path id="Vector" d="M2 5C2 4.46957 2.21071 3.96086 2.58579 3.58579C2.96086 3.21071 3.46957 3 4 3H20C20.5304 3 21.0391 3.21071 21.4142 3.58579C21.7893 3.96086 22 4.46957 22 5V19C22 19.5304 21.7893 20.0391 21.4142 20.4142C21.0391 20.7893 20.5304 21 20 21H3.987C3.45882 20.9966 2.95345 20.7843 2.58118 20.4096C2.20892 20.0349 1.99999 19.5282 2 19V5ZM4 9H20V5H4V9ZM8 11H4V19H8V11ZM10 19H20V11H10V19Z" fill="currentColor"/>
</g>
</svg>
