<svg viewBox="0 0 24 24" fill="none" xmlns="http://www.w3.org/2000/svg">
<path d="M12 3V7" stroke="currentColor" stroke-width="2" stroke-linecap="round" stroke-linejoin="round"/>
<path d="M19 12V8C19 7.46957 18.7893 6.96086 18.4142 6.58579C18.0391 6.21071 17.5304 6 17 6H7C6.46957 6 5.96086 6.21071 5.58579 6.58579C5.21071 6.96086 5 7.46957 5 8V12" stroke="currentColor" stroke-width="2" stroke-linecap="round" stroke-linejoin="round"/>
<path d="M19.4 19.5C20.4 17.7 21 15.7 21 13.5L12.8 10.3C12.3 10.1 11.7 10.1 11.2 10.3L3 13.5C3 15.7 3.6 17.7 4.6 19.5" stroke="currentColor" stroke-width="2" stroke-linecap="round" stroke-linejoin="round"/>
<path d="M2 21C2.7 21.5 3.2 22 4.5 22C7 22 7 20 9.5 20C10.8 20 11.4 20.5 12 21C12.6 21.5 13.2 22 14.5 22C17 22 17 20 19.5 20C20.8 20 21.3 20.5 22 21" stroke="currentColor" stroke-width="2" stroke-linecap="round" stroke-linejoin="round"/>
</svg>
