<svg viewBox="0 0 19.9998 19.9998" fill="none" xmlns="http://www.w3.org/2000/svg">
<g id="Group">
<path id="Vector" d="M0 1C0 0.734784 0.105357 0.48043 0.292893 0.292893C0.48043 0.105357 0.734784 0 1 0H9C9.26519 5.66374e-05 9.51951 0.105451 9.707 0.293L19.707 10.293C19.8945 10.4805 19.9998 10.7348 19.9998 11C19.9998 11.2652 19.8945 11.5195 19.707 11.707L11.707 19.707C11.5195 19.8945 11.2652 19.9998 11 19.9998C10.7348 19.9998 10.4805 19.8945 10.293 19.707L0.293 9.707C0.105451 9.51951 5.66374e-05 9.26519 0 9V1ZM2 2V8.586L11 17.586L17.586 11L8.586 2H2Z" fill="currentColor"/>
<path id="Vector_2" d="M7 5.5C7 5.89782 6.84196 6.27936 6.56066 6.56066C6.27936 6.84196 5.89782 7 5.5 7C5.10218 7 4.72064 6.84196 4.43934 6.56066C4.15804 6.27936 4 5.89782 4 5.5C4 5.10218 4.15804 4.72064 4.43934 4.43934C4.72064 4.15804 5.10218 4 5.5 4C5.89782 4 6.27936 4.15804 6.56066 4.43934C6.84196 4.72064 7 5.10218 7 5.5Z" fill="currentColor"/>
</g>
</svg>
